<?xml version="1.0" encoding="utf-8"?>
<!-- Generator: Adobe Illustrator 25.2.1, SVG Export Plug-In . SVG Version: 6.00 Build 0)  -->
<svg version="1.1" xmlns="http://www.w3.org/2000/svg" xmlns:xlink="http://www.w3.org/1999/xlink" x="0px" y="0px"
	 viewBox="0 0 784.34 591.32" style="enable-background:new 0 0 784.34 591.32;" xml:space="preserve">
<style type="text/css">
	.st0{display:none;}
	.st1{stroke:#000000;stroke-miterlimit:10;}
</style>
<g id="Capa_2" class="st0">
</g>
<g id="Capa_1">
	<rect x="174.62" y="43.74" class="st1" width="143.49" height="36.26"/>
	
		<rect x="285.29" y="87.66" transform="matrix(0.7071 0.7071 -0.7071 0.7071 178.754 -219.9695)" class="st1" width="139.24" height="36.26"/>
	
		<rect x="14.64" y="109.94" transform="matrix(-0.7071 0.7071 -0.7071 -0.7071 287.8226 136.9182)" class="st1" width="201.84" height="36.26"/>
	
		<rect x="65.96" y="189.9" transform="matrix(-0.7071 -0.7071 0.7071 -0.7071 -13.1475 410.6176)" class="st1" width="25.02" height="36.26"/>
	<polygon class="st1" points="391.13,495.79 111.07,215.74 85.44,241.37 390.64,546.57 391.13,546.09 	"/>
</g>
<g id="Capa_3">
	
		<rect x="464.86" y="43.32" transform="matrix(-1 -1.224647e-16 1.224647e-16 -1 1073.2059 122.8936)" class="st1" width="143.49" height="36.26"/>
	
		<rect x="358.44" y="87.24" transform="matrix(-0.7071 0.7071 -0.7071 -0.7071 805.2499 -122.8159)" class="st1" width="139.24" height="36.26"/>
	
		<rect x="566.49" y="109.52" transform="matrix(0.7071 0.7071 -0.7071 0.7071 285.7375 -434.5443)" class="st1" width="201.84" height="36.26"/>
	
		<rect x="691.98" y="189.48" transform="matrix(0.7071 -0.7071 0.7071 0.7071 59.5426 558.9609)" class="st1" width="25.02" height="36.26"/>
	<polygon class="st1" points="409.28,529.75 698.34,240.69 672.7,215.05 409.28,478.48 	"/>
</g>
<g id="Capa_4">
	
		<rect x="287.41" y="323.95" transform="matrix(-1.836970e-16 1 -1 -1.836970e-16 769.4829 -85.3256)" class="st1" width="279.99" height="36.26"/>
	
		<rect x="535.5" y="172.89" transform="matrix(0.7071 0.7071 -0.7071 0.7071 317.6866 -384.9362)" class="st1" width="176" height="36.26"/>
	
		<rect x="404.31" y="153.16" transform="matrix(0.6924 -0.7215 0.7215 0.6924 19.038 387.2359)" class="st1" width="118.81" height="36.26"/>
	<rect x="492.29" y="115.68" class="st1" width="81.28" height="36.26"/>
</g>
<g id="Capa_5">
	
		<rect x="98.76" y="207.71" transform="matrix(-1.836970e-16 1 -1 -1.836970e-16 434.7561 16.9263)" class="st1" width="220.32" height="36.26"/>
	
		<rect x="227.04" y="294.38" transform="matrix(-1 -1.224647e-16 1.224647e-16 -1 598.7872 625.0213)" class="st1" width="144.7" height="36.26"/>
</g>
</svg>
